<svg width="16" height="16" viewBox="0 0 16 16" fill="none" xmlns="http://www.w3.org/2000/svg">
<g clip-path="url(#clip0_198_120)">
<path d="M15.5312 0H0.46875C0.21 0 0 0.21 0 0.46875V8.76062C0 9.01937 0.21 9.22937 0.46875 9.22937H3.55844C3.61531 8.72875 3.83781 8.26781 4.1925 7.91187C4.19344 7.32312 4.425 6.76125 4.84875 6.3375C5.27031 5.91594 5.82937 5.68313 6.42312 5.68156C6.84 5.26594 7.40063 5.03219 8 5.03219C8.34094 5.03219 8.68156 5.11094 8.985 5.25969C9.2025 5.36625 9.40344 5.50969 9.57656 5.68156C10.1703 5.68281 10.7294 5.91563 11.1512 6.3375C11.575 6.76125 11.8062 7.3225 11.8072 7.91187C12.1625 8.26812 12.3847 8.72906 12.4416 9.22937H15.5312C15.79 9.22937 16 9.01937 16 8.76062V0.46875C16 0.21 15.79 0 15.5312 0ZM7.0625 4.1875H2.34375C2.085 4.1875 1.875 3.9775 1.875 3.71875C1.875 3.46 2.085 3.25 2.34375 3.25H7.0625C7.32125 3.25 7.53125 3.46 7.53125 3.71875C7.53125 3.9775 7.32125 4.1875 7.0625 4.1875ZM13.6562 4.1875H8.9375C8.67875 4.1875 8.46875 3.9775 8.46875 3.71875C8.46875 3.46 8.67875 3.25 8.9375 3.25H13.6562C13.915 3.25 14.125 3.46 14.125 3.71875C14.125 3.9775 13.915 4.1875 13.6562 4.1875ZM13.6562 2.3125H2.34375C2.085 2.3125 1.875 2.1025 1.875 1.84375C1.875 1.585 2.085 1.375 2.34375 1.375H13.6562C13.915 1.375 14.125 1.585 14.125 1.84375C14.125 2.1025 13.915 2.3125 13.6562 2.3125Z" fill="white"/>
<path d="M11.0152 8.46093C10.9008 8.37187 10.8405 8.22718 10.8589 8.08312C10.9095 7.68156 10.7742 7.28687 10.488 7.00031C10.2014 6.71406 9.80672 6.57874 9.40516 6.62937C9.38797 6.63156 9.37078 6.63281 9.35391 6.63281C9.22766 6.63281 9.10578 6.57406 9.02734 6.47312C8.90328 6.31312 8.74734 6.18749 8.57203 6.10156C8.39703 6.01562 8.20203 5.96968 7.99953 5.96968C7.59453 5.96968 7.21984 6.15343 6.97172 6.47312C6.88266 6.58781 6.73797 6.64781 6.59391 6.62937C6.19234 6.57874 5.79766 6.71406 5.51109 7.00031C5.22484 7.28687 5.08953 7.68156 5.14016 8.08312C5.15859 8.22718 5.09828 8.37187 4.98391 8.46093C4.66391 8.70906 4.48047 9.08374 4.48047 9.48874C4.48047 9.89374 4.66391 10.2684 4.98391 10.5166C5.09828 10.6056 5.15859 10.7503 5.14016 10.8944C5.08953 11.2962 5.22484 11.6909 5.51109 11.9772C5.79766 12.2634 6.19234 12.3984 6.59391 12.3481C6.73797 12.3297 6.88266 12.39 6.97172 12.5044C7.21984 12.8244 7.59453 13.0078 7.99953 13.0078C8.40453 13.0078 8.77922 12.8244 9.02734 12.5044C9.11641 12.39 9.26109 12.3297 9.40516 12.3481C9.80703 12.3987 10.2014 12.2634 10.488 11.9772C10.7742 11.6909 10.9095 11.2962 10.8589 10.8944C10.8405 10.7503 10.9008 10.6056 11.0152 10.5166C11.3352 10.2684 11.5186 9.89374 11.5186 9.48874C11.5186 9.08374 11.3352 8.70906 11.0152 8.46093ZM9.33141 9.21218L8.11547 10.4284C8.02391 10.52 7.90391 10.5656 7.78391 10.5656C7.66391 10.5656 7.54391 10.52 7.45234 10.4284L6.66766 9.64343C6.48453 9.46031 6.48453 9.16343 6.66766 8.98062C6.85047 8.79749 7.14734 8.79749 7.33047 8.98062L7.78391 9.43406L8.66859 8.54937C8.85172 8.36624 9.14859 8.36624 9.33141 8.54937C9.51453 8.73218 9.51453 9.02906 9.33141 9.21218Z" fill="white"/>
<path d="M6.42319 13.2959C6.751 13.6228 7.16819 13.8375 7.62319 13.9137L6.83194 15.7194C6.76069 15.8822 6.6035 15.9906 6.426 15.9994C6.41819 15.9997 6.41037 16 6.40256 16C6.23412 16 6.07756 15.9094 5.99412 15.7612L5.29256 14.5153L3.90069 14.8437C3.72756 14.8844 3.54662 14.8241 3.43287 14.6875C3.31912 14.5509 3.29225 14.3619 3.36381 14.1991L4.36381 11.9181C4.47475 12.1837 4.63819 12.4291 4.84912 12.64C5.27069 13.0616 5.82944 13.2944 6.42319 13.2959Z" fill="white"/>
<path d="M12.5673 14.6875C12.4535 14.8241 12.2723 14.8844 12.0995 14.8437L10.7076 14.5153L10.006 15.7612C9.91883 15.9159 9.75195 16.0081 9.57414 15.9994C9.39664 15.9906 9.23945 15.8822 9.1682 15.7194L8.37695 13.9137C8.83164 13.8375 9.24883 13.6231 9.57664 13.2959C10.1704 13.2947 10.7295 13.0616 11.151 12.64C11.362 12.4291 11.5251 12.1841 11.636 11.9181L12.6363 14.1991C12.7079 14.3619 12.681 14.5509 12.5673 14.6875Z" fill="white"/>
</g>
<defs>
<clipPath id="clip0_198_120">
<rect width="16" height="16" fill="white"/>
</clipPath>
</defs>
</svg>
