<svg width="16" height="16" viewBox="0 0 16 16" fill="none" xmlns="http://www.w3.org/2000/svg">
<g clip-path="url(#clip0_198_205)">
<path d="M8.94286 7.5669L0.942857 0.709761C0.774857 0.563475 0.537143 0.530332 0.332571 0.624047C0.130286 0.716618 0 0.920047 0 1.1429V14.8572C0 15.08 0.130286 15.2835 0.332571 15.376C0.409143 15.4115 0.490286 15.4286 0.571429 15.4286C0.705143 15.4286 0.837714 15.3818 0.942857 15.2915L8.94286 8.43433C9.07086 8.32576 9.14286 8.1669 9.14286 8.00005C9.14286 7.83319 9.07086 7.67433 8.94286 7.5669Z" fill="white"/>
<path d="M15.8003 7.5669L7.80028 0.709761C7.63228 0.563475 7.39456 0.530332 7.18999 0.624047C6.98771 0.716618 6.85742 0.920047 6.85742 1.1429V4.27319L9.68599 6.69719C10.0677 7.0229 10.286 7.49719 10.286 8.00005C10.286 8.5029 10.0666 8.97833 9.68485 9.30405L6.85742 11.7269V14.8572C6.85742 15.08 6.98771 15.2835 7.18999 15.376C7.26656 15.4115 7.34771 15.4286 7.42885 15.4286C7.56256 15.4286 7.69514 15.3818 7.80028 15.2915L15.8003 8.43433C15.9283 8.32576 16.0003 8.1669 16.0003 8.00005C16.0003 7.83319 15.9283 7.67433 15.8003 7.5669Z" fill="white"/>
</g>
<defs>
<clipPath id="clip0_198_205">
<rect width="16" height="16" fill="white"/>
</clipPath>
</defs>
</svg>
