<svg width="17" height="16" viewBox="0 0 17 16" fill="none" xmlns="http://www.w3.org/2000/svg">
<path fill-rule="evenodd" clip-rule="evenodd" d="M8.68277 1.0037C7.32135 0.95836 5.94588 1.32979 4.75836 2.12247C3.42461 3.01369 2.49252 4.32977 2.06319 5.80103C1.94463 5.78656 1.80265 5.79294 1.63407 5.84062C1.00466 6.01921 0.531269 6.53496 0.318414 6.98919C0.0423408 7.58114 -0.0740911 8.36402 0.0487264 9.17223C0.170692 9.97789 0.511048 10.642 0.936759 11.0543C1.36375 11.4668 1.84586 11.6009 2.32479 11.5002C3.03785 11.348 3.39141 11.2342 3.29158 10.5698L2.80818 7.34955C2.90567 5.60669 3.80796 3.96601 5.31711 2.95707C7.3371 1.60778 9.98545 1.6942 11.9122 3.17333C13.2526 4.201 14.0308 5.74079 14.1206 7.35721L13.7826 9.60986C13.0286 11.6731 11.1596 13.1022 8.99674 13.305H7.55656C7.18491 13.305 6.88564 13.6043 6.88564 13.9755V14.3293C6.88564 14.7007 7.18491 15 7.55656 15H9.37243C9.74386 15 10.0419 14.7007 10.0419 14.3293V14.1443C11.6728 13.7463 13.0963 12.7439 14.0233 11.3461L14.605 11.5004C15.0784 11.6233 15.5663 11.4668 15.9931 11.0545C16.4188 10.642 16.7589 9.9781 16.8811 9.17244C17.0043 8.36423 16.8845 7.58263 16.6116 6.9894C16.3377 6.39617 15.9296 6.01942 15.4586 5.88426C15.2613 5.82742 15.0471 5.80656 14.8635 5.80103C14.4752 4.47068 13.6759 3.26082 12.524 2.37747C11.3914 1.50838 10.0442 1.0484 8.68277 1.0037Z" fill="white"/>
<path fill-rule="evenodd" clip-rule="evenodd" d="M10.8077 6.79725C11.2877 6.79725 11.6768 7.18635 11.6779 7.66761C11.6768 8.1476 11.2877 8.53776 10.8077 8.53776C10.3265 8.53776 9.93632 8.1476 9.93632 7.66761C9.93632 7.18656 10.3267 6.79725 10.8077 6.79725ZM8.46421 6.79725C8.94526 6.79725 9.33436 7.18635 9.33436 7.66761C9.33436 8.1476 8.94526 8.53776 8.46421 8.53776C7.98273 8.53776 7.59363 8.1476 7.59363 7.66761C7.59363 7.18656 7.98273 6.79725 8.46421 6.79725ZM6.12153 6.79725C6.60151 6.79725 6.99168 7.18635 6.99168 7.66761C6.99168 8.1476 6.60151 8.53776 6.12153 8.53776C5.64047 8.53776 5.25116 8.1476 5.25116 7.66761C5.25116 7.18656 5.64047 6.79725 6.12153 6.79725ZM8.46421 3.05908C5.91208 3.05908 3.85547 5.048 3.85547 7.66761C3.85547 8.9258 4.3312 10.0378 5.10621 10.8536L4.8312 12.0865C4.74052 12.4922 5.02192 12.7651 5.38654 12.562L6.59045 11.8904C7.1626 12.1388 7.79542 12.2761 8.46421 12.2761C11.0172 12.2761 13.0725 10.2885 13.0725 7.66761C13.0725 5.048 11.0172 3.05908 8.46421 3.05908Z" fill="white"/>
</svg>
