<svg width="16" height="16" viewBox="0 0 16 16" fill="none" xmlns="http://www.w3.org/2000/svg">
<g clip-path="url(#clip0_198_139)">
<path d="M14.6666 6.10352e-05H9.12485C8.75825 6.10352e-05 8.24587 0.212442 7.98685 0.471269L0.389089 8.06899C-0.129696 8.58718 -0.129696 9.43679 0.389089 9.95436L6.04624 15.6113C6.56385 16.1295 7.41263 16.1295 7.93103 15.6107L15.5288 8.01418C15.7876 7.75539 16 7.2422 16 6.87638V1.33345C16 0.600252 15.3998 6.10352e-05 14.6666 6.10352e-05ZM11.9998 5.33342C11.2634 5.33342 10.6664 4.73581 10.6664 4.00003C10.6664 3.26304 11.2634 2.66664 11.9998 2.66664C12.7362 2.66664 13.3334 3.26304 13.3334 4.00003C13.3334 4.73581 12.7362 5.33342 11.9998 5.33342Z" fill="white"/>
</g>
<defs>
<clipPath id="clip0_198_139">
<rect width="16" height="16" fill="white"/>
</clipPath>
</defs>
</svg>
