<svg width="16" height="16" viewBox="0 0 16 16" fill="none" xmlns="http://www.w3.org/2000/svg">
<path d="M6.14426 4.625H7.83432C8.13144 4.00834 7.68169 3.28125 6.98907 3.28125C6.29776 3.28125 5.84591 4.00719 6.14426 4.625Z" fill="white"/>
<path d="M6.98828 2.34375C8.18247 2.34375 9.07812 3.45153 8.81897 4.625H11.207V3.59375C11.207 3.42116 11.0671 3.28125 10.8945 3.28125H10.2638C10.1919 3.02962 10.0917 2.79 9.96703 2.56581L10.4133 2.11953C10.5353 1.9975 10.5353 1.79962 10.4133 1.67759L9.52944 0.793719C9.40741 0.671687 9.20953 0.671687 9.0875 0.793719L8.64122 1.24C8.41703 1.11531 8.17741 1.01509 7.92578 0.943187V0.3125C7.92578 0.139906 7.78587 0 7.61328 0H6.36328C6.19069 0 6.05078 0.139906 6.05078 0.3125V0.943219C5.79916 1.01509 5.55953 1.11534 5.33534 1.24003L4.88906 0.793719C4.76703 0.671687 4.56916 0.671687 4.44712 0.793719L3.56325 1.67759C3.44122 1.79962 3.44122 1.9975 3.56325 2.11953L4.00956 2.56581C3.88491 2.79 3.78466 3.02962 3.71278 3.28125H3.08203C2.90944 3.28125 2.76953 3.42116 2.76953 3.59375V4.625H5.15866C4.89803 3.44847 5.79663 2.34375 6.98828 2.34375Z" fill="white"/>
<path d="M14.8137 9.92688L12.974 7.17594C12.9427 6.61938 12.8309 6.07938 12.6406 5.5625H1.4511C0.395474 8.42838 1.83891 11.7333 4.85838 12.8047V15.5312C4.85838 15.79 5.06807 16 5.32713 16H10.6709C10.9296 16 11.1396 15.79 11.1396 15.5312V13.125H12.5146C12.7734 13.125 12.9834 12.915 12.9834 12.6562V10.6562H14.424C14.7978 10.6562 15.0218 10.2381 14.8137 9.92688Z" fill="white"/>
</svg>
